<svg xmlns="http://www.w3.org/2000/svg" width="55" height="71" viewBox="0 0 55 71"><g><g><g><text dominant-baseline="text-before-edge" style="font-kerning:normal" fill="#202020" font-family="Intro-Regular-Caps" font-size="12" letter-spacing=".18" transform="translate(1 59)"><tspan style="font-kerning:normal">PEGASUS</tspan></text></g></g><g><path fill="#3b3b3b" d="M13.397 37.6c3.056 2.4 5.25 2.844 6.347 3.2 1.096.356 4.622.444 10.106.267-.783.71-1.488 1.155-2.115 1.333l-2.82.8c1.566.889 3.055 1.511 4.465 1.867 1.41.355 3.761.533 7.052.533l.235 3.2c.156.356.548.533 1.175.533.94 0 4.7-.533 7.051-2.933 1.567-1.6 2.742-1.956 3.526-1.067l-1.645 4h-1.41l-.94-.266V52h2.35c1.096-.356 1.645-.622 1.645-.8 0-.178 1.723-3.289 5.17-9.333.157-.356.08-.711-.234-1.067s-.784-.978-1.41-1.867h-.706c-.626 0-2.507-.089-5.64-.266-.47-.178-.784-.711-.94-1.6-.158-.89-.158-1.956 0-3.2v-1.6c.156-.534.47-.89.94-1.067.47-.178 1.175-.267 2.115-.267 1.097.356 1.802.8 2.115 1.334.47.8 2.115 3.733 2.35 4.266C54.06 35.111 55 34.133 55 33.6v-2.667l-3.996-10.666H49.83l-.94 1.6c-2.82-.534-5.328-.267-7.521.8a106.72 106.72 0 0 1-5.877 2.666h-.47l5.171-4-4.7-4.8c-4.701-5.51-7.444-8.889-8.227-10.133-.784-1.244-2.272-3.378-4.466-6.4h-2.35l.235 6.933c.94 2.667 2.82 5.6 5.64 8.8 2.821 3.2 4.623 5.423 5.407 6.667h-.47l-8.932-7.733 3.056 10.666c1.41.178 2.507.534 3.29 1.067.784.533 1.567 1.333 2.35 2.4l-6.816-2.133-23.773-7.07-.436-.13s2.585 4.8 5.17 6.933c2.586 2.133 6.091 4.036 7.992 4.533 2.037.534 4.936 1.156 8.697 1.867l-.235.533-9.887-.233-1.395-.033s.998 2.903 2.994 4.485l.061.048z"/></g></g></svg>