<svg xmlns="http://www.w3.org/2000/svg" width="39" height="39" viewBox="0 0 39 39"><g><g><g><path d="M30.323 27.9l.943.942-2.424 2.424-.942-.943zm.135 4.982l-.808-.808 2.424-2.424.808.808zm-3.732-6.968l1.991 1.992-.81.811-1.993-1.991c.28-.26.551-.531.812-.812zm11.416 8.189a.571.571 0 1 0-.807.808l.475.475-2.424 2.424-4.12-4.12 2.424-2.424 1.922 1.922a.571.571 0 0 0 .808-.808l-2.325-2.325-.001-.001-1.616-1.616-.002-.001-1.426-1.426a1.021 1.021 0 0 0-.727-.301c-.274 0-.533.107-.727.3l-.08.082-2.045-2.045a15.375 15.375 0 0 0 3.029-6.353h4.025a.571.571 0 1 0 0-1.142h-3.823c.05-.364.088-.731.113-1.102h6.433a.571.571 0 1 0 0-1.142h-6.4c-.002-.37-.018-.737-.046-1.102h3.723a.571.571 0 1 0 0-1.143h-3.853a15.238 15.238 0 0 0-3.146-7.205.572.572 0 0 0-.896.71 14.133 14.133 0 0 1 3.077 8.857c0 7.875-6.407 14.282-14.282 14.282S1.143 23.3 1.143 15.425 7.55 1.143 15.425 1.143c3.56 0 6.97 1.317 9.603 3.71a.571.571 0 1 0 .768-.846A15.388 15.388 0 0 0 15.425 0C6.92 0 0 6.92 0 15.425c0 7.509 5.394 13.78 12.51 15.147v3.854a.571.571 0 1 0 1.143 0v-3.679c.364.042.731.071 1.102.087v6.28a.571.571 0 1 0 1.142 0v-6.272c.371-.012.738-.035 1.102-.072v3.656a.571.571 0 1 0 1.143 0V30.61a15.364 15.364 0 0 0 6.905-3.139l2.045 2.044-.081.081a1.021 1.021 0 0 0-.301.727c0 .275.107.533.3.727l1.427 1.427h.001l1.616 1.617h.001L34.66 38.7c.194.194.453.301.727.301.275 0 .533-.107.728-.301l2.585-2.585c.194-.195.301-.453.301-.728 0-.274-.107-.533-.301-.727z"/></g><g><path d="M7.465 25.887c2.288 1.72 5.037 2.648 7.955 2.682 7.246 0 13.14-5.894 13.14-13.14 0-7.245-5.894-13.139-13.14-13.139a12.985 12.985 0 0 0-9.26 3.854 13.275 13.275 0 0 0-3.88 9.28 12.842 12.842 0 0 0 3.307 8.744.571.571 0 0 0 .85-.764 11.702 11.702 0 0 1-3.014-7.968A12.138 12.138 0 0 1 6.97 6.95a11.85 11.85 0 0 1 8.45-3.517c6.616 0 11.997 5.381 11.997 11.997 0 6.615-5.381 11.997-11.99 11.997-2.667-.032-5.183-.88-7.276-2.453a.571.571 0 1 0-.686.913z"/></g><g><path d="M21.897 12.152v2.97h-3.428v-2.97zm-7.998-5.79h3.428v8.76h-3.428zm-4.57 2.895h3.427v5.855H9.328zm8.264-4.037h-3.96a.877.877 0 0 0-.877.876v2.019H9.062a.877.877 0 0 0-.876.876v6.131H7.42a.571.571 0 1 0 0 1.143h16.383a.571.571 0 1 0 0-1.143h-.765v-3.237a.877.877 0 0 0-.876-.876H18.47V6.096a.877.877 0 0 0-.876-.876z"/></g><g><path d="M22.018 21.106h-2.69l-1.222-3.123a.572.572 0 0 0-1.067.01l-1.67 4.502-1.167-3.307a.571.571 0 0 0-1.038-.089l-1.12 2.007H9.36a.571.571 0 1 0 0 1.143h3.018a.571.571 0 0 0 .499-.293l.667-1.195 1.272 3.603c.08.227.293.38.534.382h.005a.571.571 0 0 0 .535-.373l1.698-4.577.817 2.09a.571.571 0 0 0 .532.363h3.08a.571.571 0 1 0 0-1.143z"/></g></g></g></svg>