<svg xmlns="http://www.w3.org/2000/svg" width="10" height="21" viewBox="0 0 10 21"><g><g><path fill="#004bcc" d="M5.005 9.625c-2.3 0-4.172-1.963-4.172-4.375S2.705.875 5.005.875 9.177 2.838 9.177 5.25 7.305 9.625 5.005 9.625zM5 0C2.243 0 0 2.355 0 5.25c0 2.747 2.02 5.004 4.583 5.228v10.084c0 .242.187.438.417.438.23 0 .417-.196.417-.438V10.478C7.979 10.254 10 7.998 10 5.25 10 2.355 7.757 0 5 0z"/></g><g><path fill="#004bcc" d="M5.556 2.21C3.595 2.21 2 3.973 2 6.14c0 .271.199.491.444.491.246 0 .445-.22.445-.491 0-1.625 1.196-2.948 2.667-2.948.245 0 .444-.22.444-.49 0-.272-.199-.492-.445-.492z"/></g></g></svg>