<svg xmlns="http://www.w3.org/2000/svg" width="40" height="38" viewBox="0 0 40 38"><g><g><g><path d="M39.455 11.971l-1.568-.414a.667.667 0 0 0-.815.464c-.095.35.115.71.47.803 1.705.45 1.62.437 1.741.437a.655.655 0 0 0 .172-1.29zm-8.237-9.94c-.096.35.116.71.473.803a.671.671 0 0 0 .82-.464l.423-1.544a.655.655 0 0 0-.474-.804.671.671 0 0 0-.82.464zm7.662 2.843a.675.675 0 0 0-.913-.24l-1.728.98a.65.65 0 0 0-.245.896.675.675 0 0 0 .913.24l1.728-.98a.65.65 0 0 0 .245-.896zm-6.766 3.812a2.734 2.734 0 0 1-.489 3.373l-2.72-4.643c1.193-.344 2.541.13 3.21 1.27zm.19 4.531c2.599-2.091 1.701-6.226-1.546-7.084a4.159 4.159 0 0 0-2.532.125l-2.58-4.402c-1.05-1.792-3.653-1.84-4.771-.093A40.692 40.692 0 0 1 8.455 14.14a.65.65 0 0 0-.223.864c.028.05 4.301 7.34 4.33 7.39.183.313.59.42.909.24a.65.65 0 0 0 .243-.897l-4.007-6.839A41.981 41.981 0 0 0 22.001 2.463c.585-.914 1.945-.886 2.492.049l9.238 15.764c.548.936-.109 2.109-1.203 2.15a42.833 42.833 0 0 0-17.644 4.552l-6.683 3.8c-1.113.634-2.542.257-3.185-.84l-3.373-5.756a2.282 2.282 0 0 1 .854-3.138l4.059-2.31a.65.65 0 0 0 .244-.895.671.671 0 0 0-.91-.24l-4.059 2.308c-1.75.995-2.35 3.207-1.34 4.931l3.372 5.755c1.01 1.724 3.255 2.317 5.004 1.322l.154-.088 4.164 7.106a2.181 2.181 0 0 0 2.957.78l1.46-.83a2.115 2.115 0 0 0 .793-2.914l-2.951-5.036a.671.671 0 0 0-.91-.24.65.65 0 0 0-.244.896l2.951 5.036a.814.814 0 0 1-.304 1.122l-1.46.83a.84.84 0 0 1-1.139-.3l-4.164-7.106 5.331-3.032a41.482 41.482 0 0 1 17.075-4.401c2.098-.081 3.353-2.33 2.304-4.118z"/></g></g></g></svg>