<svg xmlns="http://www.w3.org/2000/svg" width="38" height="38" viewBox="0 0 38 38"><g><g><g><path d="M28.213 31.899H3.797c-.354 0-.643-.276-.643-.614 0-.339.289-.614.643-.614h24.416c.354 0 .643.275.643.614 0 .338-.289.614-.643.614zM4.374 23.637a.55.55 0 0 1 .562-.536h22.138c.31 0 .562.24.562.536v5.933H4.374zm24.406 6.024v-6.024c0-.903-.77-1.637-1.716-1.637H4.936c-.946 0-1.716.735-1.716 1.637v6.024c-.708.23-1.22.87-1.22 1.624C2 32.23 2.806 33 3.797 33h24.406c.99 0 1.797-.77 1.797-1.715 0-.753-.511-1.394-1.22-1.624z"/></g><g><path d="M28.286 25h-.476v1.071h.476c.619 0 .619.145.619.346v7.16c0 .488-.336 1.066-.62 1.066H1.865c-.324 0-.77-.618-.77-1.066v-7.16c0-.112 0-.346.77-.346h.472v-1.07h-.472c-.487 0-.888.085-1.191.254A1.277 1.277 0 0 0 0 26.417v7.16c0 .45.19.965.506 1.378.37.483.865.76 1.358.76h.472V38H3.43v-2.286h23.795V38h1.095v-2.287C29.402 35.686 30 34.441 30 33.577v-7.16c0-.53-.223-1.417-1.714-1.417z"/></g><g><path d="M6 26h1v1H6z"/></g><g><path d="M24 26h1v1h-1z"/></g><g><path d="M15 26h1v1h-1z"/></g><g><path d="M1.102 1.123h15.796v10.764H1.102zM0 13h18V0H0z"/></g><g><path d="M3.14 9.929V3.071h12.72v6.858zM2 2v9h15V2z"/></g><g><path d="M27.933 19.765h-7.876v-6.54h7.876zM19 12v9h10v-9z"/></g><g><path d="M26.897 18.802h-4.784v-2.604h4.784zM21 20h7v-5h-7z"/></g><g><path d="M25.59 9.897v-.573H24.4v.573c-1.598-.227-2.868-1.356-3.15-2.79h.694V6.034h-.717c.228-1.495 1.527-2.687 3.174-2.92v.775h1.188v-.776c1.647.234 2.946 1.426 3.174 2.921h-.797v1.073h.774c-.282 1.434-1.552 2.563-3.15 2.79zM25 2c-2.757 0-5 2.019-5 4.5s2.243 4.5 5 4.5 5-2.019 5-4.5S27.757 2 25 2z"/></g><g><path d="M23.875 5v1.636H22V8h3V5z"/></g><g><path d="M36.897 36.897h-4.784v-.663h4.784zM35.068 22h-1.113v13.12H31V38h7v-2.88h-2.932z"/></g><g><path d="M35.802 18.162h-1.888v1.13h1.888v.645h-2.604V9.129h2.604zM32 8v13.066h1.914V22h1.198v-.934H37V8z"/></g><g transform="rotate(-45 7.5 5)"><path d="M6.92 4.7l1.671.007.004 1.117-1.67-.007z"/></g><g transform="rotate(-45 9 6)"><path d="M6.31 5.58l5.849.023.004 1.117-5.849-.023z"/></g><g transform="rotate(-45 10.5 7.5)"><path d="M9.89 7.06l1.67.007.005 1.117-1.67-.007z"/></g></g></g></svg>