<svg xmlns="http://www.w3.org/2000/svg" width="38" height="38" viewBox="0 0 38 38"><g><g><g><path fill="#e3e3e3" d="M20.46 20.46h16.564v16.564H20.46z"/></g><g><path d="M7.483 35.028h5.64l-1.755 1.74a.717.717 0 0 0 0 1.014.723.723 0 0 0 .51.213.723.723 0 0 0 .51-.213l2.992-2.968a.717.717 0 0 0 0-1.013l-2.991-2.967a.731.731 0 0 0-1.021 0 .717.717 0 0 0 0 1.013l1.755 1.74h-5.64c-3.327 0-6.031-2.682-6.031-5.981V24.1A.726.726 0 0 0 0 24.1v3.506c0 4.09 3.35 7.422 7.483 7.422z"/></g><g><path d="M1.658.29A.982.982 0 0 0 .969 0a.982.982 0 0 0-.69.29A.96.96 0 0 0 0 .973c0 .257.108.504.28.686.183.182.43.289.689.289a.982.982 0 0 0 .689-.29.971.971 0 0 0 .29-.685.971.971 0 0 0-.29-.685z"/></g><g><path d="M9.744 1.949a.971.971 0 0 0 .975-.975A.971.971 0 0 0 9.744 0a.978.978 0 0 0-.974.974c.01.546.439.975.974.975z"/></g><g><path d="M4.874 0A.978.978 0 0 0 3.9.974c0 .536.428.975.974.975A.964.964 0 0 0 5.85.974.985.985 0 0 0 4.874 0z"/></g><g><path d="M13.644 0a.978.978 0 0 0-.974.974c0 .536.439.975.974.975a.971.971 0 0 0 .975-.975.985.985 0 0 0-.975-.974z"/></g><g><path d="M18.227 1.66a.958.958 0 0 0 .282-.686c0-.257-.109-.503-.282-.685A.99.99 0 0 0 17.534 0a.99.99 0 0 0-.693.29.958.958 0 0 0-.281.684c0 .257.108.504.281.686a.99.99 0 0 0 .693.289c.26-.011.51-.107.693-.29z"/></g><g><path d="M17.529 8.77a.965.965 0 0 0-.969.969c0 .538.43.98.969.98.538 0 .98-.442.98-.98a.988.988 0 0 0-.98-.969z"/></g><g><path d="M17.529 12.67a.971.971 0 0 0-.969.974.974.974 0 1 0 1.949 0 .988.988 0 0 0-.98-.974z"/></g><g><path d="M17.529 3.9a.965.965 0 0 0-.969.974c0 .536.43.975.969.975a.98.98 0 0 0 .98-.975.98.98 0 0 0-.98-.974z"/></g><g><path d="M18.509 17.534c0-.257-.108-.503-.28-.685a.982.982 0 0 0-.69-.289.982.982 0 0 0-.688.29.971.971 0 0 0-.291.684c0 .257.108.504.29.686.184.182.431.289.69.289a.982.982 0 0 0 .689-.29.943.943 0 0 0 .28-.685z"/></g><g><path d="M9.744 16.56a.978.978 0 0 0-.974.974c0 .536.428.975.974.975a.971.971 0 0 0 .975-.975.971.971 0 0 0-.975-.974z"/></g><g><path d="M13.644 16.56a.978.978 0 0 0-.974.974c0 .536.428.975.974.975a.971.971 0 0 0 .975-.975.971.971 0 0 0-.975-.974z"/></g><g><path d="M4.874 16.56a.978.978 0 0 0-.974.974c0 .536.428.975.974.975a.964.964 0 0 0 .975-.975.978.978 0 0 0-.975-.974z"/></g><g><path d="M.28 16.85a.96.96 0 0 0-.28.684c0 .257.108.504.28.686.183.182.43.289.689.289a.982.982 0 0 0 .689-.29.971.971 0 0 0 .29-.685.971.971 0 0 0-.29-.685.982.982 0 0 0-.689-.289 1.03 1.03 0 0 0-.69.29z"/></g><g><path d="M.974 3.9A.971.971 0 0 0 0 4.874c0 .536.428.975.974.975a.978.978 0 0 0 .975-.975.971.971 0 0 0-.975-.974z"/></g><g><path d="M.974 8.77a.974.974 0 1 0-.001 1.95.974.974 0 0 0 .001-1.95z"/></g><g><path d="M.974 12.67a.978.978 0 0 0-.974.974c0 .536.428.975.974.975a.971.971 0 0 0 .975-.975.978.978 0 0 0-.975-.974z"/></g><g><path d="M25.616.21l-2.99 2.969a.717.717 0 0 0-.216.506c0 .19.08.372.215.507l2.99 2.968a.722.722 0 0 0 .511.213.722.722 0 0 0 .51-.213.718.718 0 0 0 0-1.013l-1.754-1.742h5.638c3.325 0 6.028 2.684 6.028 5.984v3.506a.726.726 0 0 0 1.452 0V10.39c0-4.092-3.357-7.424-7.48-7.424h-5.638l1.754-1.741a.718.718 0 0 0 0-1.013.723.723 0 0 0-1.02 0z"/></g><g><path d="M36.57 36.57H20.923V20.915h15.645zm1.433.708V20.207a.72.72 0 0 0-.717-.717h-17.08a.72.72 0 0 0-.716.717v17.079a.72.72 0 0 0 .717.717h17.079a.732.732 0 0 0 .717-.725z"/></g></g></g></svg>