<svg xmlns="http://www.w3.org/2000/svg" width="15" height="15" viewBox="0 0 15 15"><g><g><path fill="#cdcdcd" d="M14.99 14.612l-.375-1.5a2.178 2.178 0 0 0-1.428-1.55l-2.75-.916c-.67-.28-.977-1.36-1.044-1.77.511-.424.84-1.029.92-1.689a.51.51 0 0 1 .075-.321.312.312 0 0 0 .214-.188c.18-.436.293-.896.335-1.366a.3.3 0 0 0-.01-.075.804.804 0 0 0-.302-.455V3.125c0-1.007-.308-1.42-.632-1.66C9.932.982 9.413 0 7.5 0a3.259 3.259 0 0 0-3.125 3.125v1.657a.804.804 0 0 0-.303.455.3.3 0 0 0-.01.076c.042.47.155.93.335 1.366a.266.266 0 0 0 .188.18c.035.017.1.107.1.329.08.661.41 1.267.924 1.692-.066.41-.37 1.489-1.022 1.761l-2.775.922c-.71.236-1.25.82-1.427 1.548l-.375 1.5a.313.313 0 0 0 .302.39h14.375a.313.313 0 0 0 .303-.39z"/></g></g></svg>