<svg xmlns="http://www.w3.org/2000/svg" width="28" height="38" viewBox="0 0 28 38"><g><g><g><path d="M22.442 26.31H21.26v3.154h.939l-7.685 7.426h-.683l-3.986-3.852-.846.776 4.334 4.188h1.68L25 28.352h-2.558z"/></g><g><path d="M5.961 29.517h.993V26.31H5.705v2.076H3l5.106 4.745.894-.79z"/></g><g><path d="M13.529 26.306c1.175 0 2.343-.143 3.471-.426l-.291-1.04a13.1 13.1 0 0 1-3.18.39c-6.833 0-12.392-5.257-12.392-11.719 0-2.938 1.155-5.75 3.254-7.915l-.838-.726C1.262 7.234 0 10.303 0 13.511c0 7.055 6.069 12.795 13.529 12.795z"/></g><g><path d="M14.272 0C10.83 0 7.537 1.218 5 3.428l.78.809c2.323-2.025 5.339-3.14 8.492-3.14 6.934 0 12.574 5.364 12.574 11.958 0 5.02-3.333 9.54-8.294 11.247l.392 1.031c2.627-.904 4.878-2.53 6.508-4.702C27.12 18.411 28 15.791 28 13.055 28 5.856 21.842 0 14.272 0z"/></g><g><path d="M8 18.743l3.147 1.722 5.247-8.614-1.05-.574-4.64 7.62-1.05-.574 6.642-10.905 1.05.574-1.396 2.29 1.05.575 2-3.285-3.147-1.722z"/></g><g><path d="M19.583 18.628c-.344.579-1.11.778-1.707.444a1.21 1.21 0 0 1-.582-.737 1.174 1.174 0 0 1 .124-.92 1.258 1.258 0 0 1 1.085-.607c.212 0 .426.052.623.162.597.335.802 1.078.457 1.658zm-3.497.029a2.43 2.43 0 0 0 1.165 1.479c.393.22.822.326 1.246.326.864 0 1.706-.437 2.169-1.218.689-1.163.278-2.656-.915-3.328-1.194-.672-2.726-.272-3.415.892a2.367 2.367 0 0 0-.25 1.849z"/></g><g><path d="M8.875 10.3a1.195 1.195 0 0 1-.458-1.656 1.259 1.259 0 0 1 1.085-.606c.212 0 .427.052.623.162.597.334.802 1.077.458 1.657-.345.579-1.111.778-1.708.444zm1.875-3.154c-1.194-.672-2.726-.272-3.415.891-.69 1.163-.28 2.656.915 3.327a2.537 2.537 0 0 0 1.897.244 2.477 2.477 0 0 0 1.519-1.135c.689-1.163.278-2.656-.916-3.327z"/></g><g><path d="M24.334 19.49c1.35-2.097 1.896-4.456 1.577-6.82l-1.494.13c.288 2.127-.203 4.248-1.417 6.133z"/></g><g><path d="M22 19.569l1.104.89c.319-.376.62-.772.896-1.178l-1.194-.771c-.248.365-.52.72-.806 1.059z"/></g><g><path d="M19 28.26h1v.974h-1z"/></g></g></g></svg>