<svg xmlns="http://www.w3.org/2000/svg" width="38" height="38" viewBox="0 0 38 38"><g><g><g><path d="M18.875 33.188h3.466v3.699h-3.466zM2.6 28.153v-1.534c0-4.18 3.4-7.581 7.58-7.581s7.582 3.4 7.582 7.58v1.535zm1.678-23.06h4.433a.15.15 0 0 1 .15.151v1.591H4.128v-1.59a.15.15 0 0 1 .15-.152zm2.864-2.277c0-.939.764-1.703 1.703-1.703h20.87c.939 0 1.703.764 1.703 1.704v20.337h-.988V5.48a2.12 2.12 0 0 0-2.117-2.117h-6.768a2.12 2.12 0 0 0-2.117 2.117V6.95h-1.66c-.697 0-1.263.567-1.263 1.263v1.655a.556.556 0 0 0 0 .967v2.057h-6.51c-.011-3.929.015 1.83-.02-5.025a.556.556 0 0 0 0-.968V5.243c0-.696-.567-1.263-1.263-1.263h-1.57zm25.489 21.572v.862h-3.55v-.862c0-.066.054-.12.12-.12h3.309c.067 0 .12.054.12.12zm1.836 3.614h-7.222c.17-.498.373-.996.611-1.492a.264.264 0 0 1 .239-.146h5.522c.102 0 .195.057.238.146.239.496.442.993.612 1.492zm-8.841 5.186c.165 1.235.525 2.47 1.081 3.699h-3.243v-3.7zm-.117-1.892c-.007.256-.006.512.004.768h-6.638v-.768zm-6.271-2.037a.555.555 0 1 0 0-1.11h-.363v-.804h3.466v2.828h-3.466v-.914h.363zm-1.62-8.174h4.733v5.137h-3.485a8.608 8.608 0 0 0-1.248-4.104zm-1.123-5.204c0 .106-.002 4.469.007 4.776a8.67 8.67 0 0 0-6.527-2.73v-2.046zm.007 4.776l.003.002c-.001.02-.002.019-.003-.002zm-7.64-4.671v2.034a8.683 8.683 0 0 0-4.734 2.354v-4.388zm0-6.214H7.607a.557.557 0 1 0 0 1.114H8.86v3.987H4.128v-3.987h1.254a.557.557 0 1 0 0-1.114H4.128V7.94h4.733zm7.643 5.006H9.994v-.774h6.51zM22.2 8.062a.15.15 0 0 1 .15.15v1.582h-4.733V8.212a.15.15 0 0 1 .15-.15zm-4.583 7.923h4.733v3.987h-4.733zm0-5.078h4.733v3.965h-4.733zm11.698 12.24h-.114c-.681 0-1.235.553-1.235 1.234v.868a1.383 1.383 0 0 0-1.114.77 14.331 14.331 0 0 0-.779 1.974h-.007a.556.556 0 0 0-.27 1.043c-.082.379-.147.758-.194 1.137h-2.139V10.832a.556.556 0 0 0 0-.967V8.211c0-.697-.567-1.263-1.263-1.263h-1.66V5.48c0-.553.45-1.004 1.004-1.004h6.768c.553 0 1.003.45 1.003 1.004zM8.54 33.937h3.282v2.95H8.54zm26.474 2.95c.451-1.001.777-2.012.97-3.014a.557.557 0 0 0-1.093-.21 12.734 12.734 0 0 1-1.107 3.224h-2.372v-.858a.557.557 0 1 0-1.113 0v.858h-2.371c-.83-1.68-1.268-3.375-1.302-5.043-.02-.904.081-1.816.297-2.729h7.865c.192.813.293 1.625.3 2.431a.557.557 0 0 0 .556.553h.004a.557.557 0 0 0 .552-.561 11.954 11.954 0 0 0-.286-2.493.556.556 0 0 0-.27-1.043h-.007c-.204-.66-.464-1.32-.779-1.975a1.382 1.382 0 0 0-1.114-.77v-.869c0-.673-.542-1.222-1.213-1.233V2.817A2.82 2.82 0 0 0 29.715 0H8.845A2.82 2.82 0 0 0 6.03 2.816V3.98h-1.75c-.697 0-1.264.567-1.264 1.263v1.655a.556.556 0 0 0 0 .968V21.7a8.645 8.645 0 0 0-1.528 4.918v1.534h-.364a.557.557 0 1 0 0 1.113h.364v3.002a.557.557 0 1 0 1.113 0v-3.002h15.162v7.62h-4.827V33.82a.997.997 0 0 0-.995-.995H8.422a.997.997 0 0 0-.996.995v3.068H2.6v-2.394a.557.557 0 1 0-1.113 0v2.394h-.93a.557.557 0 1 0 0 1.113h36.886a.557.557 0 1 0 0-1.113z"/></g><g><path d="M9.223 24.955c0-.679.538-1.666.78-1.705.246.039.784 1.026.784 1.705a.79.79 0 0 1-.782.795.79.79 0 0 1-.782-.795zm-.745-1.752c-.29.56-.478 1.248-.478 1.752C8 26.083 8.897 27 10 27s2-.917 2-2.045c0-.504-.188-1.192-.478-1.752C11.12 22.427 10.58 22 10 22c-.58 0-1.12.427-1.522 1.203z"/></g></g></g></svg>