<svg xmlns="http://www.w3.org/2000/svg" width="14" height="14" viewBox="0 0 14 14"><g><g><g><path d="M6.994 13.001a6.232 6.232 0 0 1-2.158-.386.373.373 0 0 0-.202-.02l-3.148.541.833-1.902a.372.372 0 0 0-.061-.394 6.003 6.003 0 0 1-1.49-3.957C.768 3.5 3.572.75 7.013.75c3.434-.007 6.223 2.72 6.227 6.092v.022c0 3.388-2.804 6.137-6.246 6.137zM7.032 0c-.003.004-.011.004-.022.004C3.144.004 0 3.09 0 6.887a6.76 6.76 0 0 0 1.524 4.265l-1.02 2.325a.37.37 0 0 0 .199.492c.069.03.145.037.218.026l3.74-.645a6.85 6.85 0 0 0 2.33.397c3.865 0 7.009-3.087 7.009-6.883C14.008 3.08 10.887.004 7.032 0z"/></g><g><path d="M6.595 5h-2.19C4.182 5 4 5.225 4 5.5s.182.5.405.5h2.19C6.818 6 7 5.775 7 5.5S6.818 5 6.595 5z"/></g><g><path d="M9.583 7H4.417C4.187 7 4 7.225 4 7.5s.188.5.417.5h5.166c.23 0 .417-.225.417-.5S9.812 7 9.583 7z"/></g></g></g></svg>