<svg xmlns="http://www.w3.org/2000/svg" width="42" height="42" viewBox="0 0 42 42"><g><g><g><path fill="#ff1e25" d="M20.91 41c10.995 0 19.909-8.954 19.909-20S31.905 1 20.909 1C9.915 1 1 9.954 1 21s8.914 20 19.91 20z"/><path fill="none" stroke="#ff1e25" stroke-miterlimit="20" d="M20.91 41c10.995 0 19.909-8.954 19.909-20S31.905 1 20.909 1C9.915 1 1 9.954 1 21s8.914 20 19.91 20z"/></g><g><g><path fill="#fff" d="M29.294 21c0-4.664-3.755-8.438-8.394-8.438-4.64 0-8.395 3.775-8.395 8.438 0 4.664 3.755 8.438 8.395 8.438s8.394-3.775 8.394-8.438zm1.566 0c0 5.527-4.454 10-9.955 10-5.503 0-9.955-4.473-9.955-10s4.453-10 9.955-10 9.954 4.473 9.954 10zm-5.565-2.068l-5.211 5.241a.774.774 0 0 1-1.099 0l-2.481-2.495a.784.784 0 0 1 0-1.105.774.774 0 0 1 1.099 0l1.931 1.943 4.663-4.69a.774.774 0 0 1 1.098 0c.304.306.304.8 0 1.106z"/></g></g></g></g></svg>