<svg xmlns="http://www.w3.org/2000/svg" width="20" height="20" viewBox="0 0 20 20"><g><g><path fill="#fff" d="M18.294 10c0-4.664-3.755-8.438-8.394-8.438-4.64 0-8.395 3.775-8.395 8.438 0 4.664 3.755 8.438 8.395 8.438s8.394-3.775 8.394-8.438zm1.566 0c0 5.527-4.454 10-9.955 10C4.402 20-.05 15.527-.05 10S4.403 0 9.905 0s9.955 4.473 9.955 10zm-5.565-2.068l-5.211 5.241a.774.774 0 0 1-1.099 0l-2.481-2.495a.784.784 0 0 1 0-1.105.774.774 0 0 1 1.099 0l1.931 1.943 4.663-4.69a.774.774 0 0 1 1.098 0c.304.306.304.8 0 1.106z"/></g></g></svg>