<svg xmlns="http://www.w3.org/2000/svg" width="22" height="24" viewBox="0 0 22 24"><g><g><g><path fill="#626262" d="M20.073 16.631a.877.877 0 0 1-.448.76l-8.182 4.627a.915.915 0 0 1-.896 0l-8.182-4.626a.877.877 0 0 1-.448-.76V7.377c0-.312.171-.604.448-.76l8.182-4.626a.915.915 0 0 1 .896 0l8.182 4.626a.877.877 0 0 1 .448.76zm.52-11.64L12.407.369a2.876 2.876 0 0 0-2.814 0L1.407 4.992A2.75 2.75 0 0 0 0 7.376v9.248c0 .98.54 1.894 1.407 2.384l8.186 4.624c.868.49 1.946.49 2.814 0l8.186-4.624A2.75 2.75 0 0 0 22 16.624V7.376a2.75 2.75 0 0 0-1.407-2.384z"/></g><g><path fill="#626262" d="M15 11H7a1 1 0 1 0 0 2h8a1 1 0 0 0 0-2z"/></g></g></g></svg>