<svg xmlns="http://www.w3.org/2000/svg" width="21" height="20" viewBox="0 0 21 20"><defs><clipPath id="evara"><path fill="#fff" d="M16 20a5 5 0 1 0 0-10 5 5 0 0 0 0 10z"/></clipPath><clipPath id="evarb"><path fill="#fff" d="M5 10A5 5 0 1 0 5 0a5 5 0 0 0 0 10z"/></clipPath></defs><g><g><path fill="none" stroke="#3bce00" stroke-miterlimit="20" stroke-width="6" d="M16 20a5 5 0 1 0 0-10 5 5 0 0 0 0 10z" clip-path="url(&quot;#evara&quot;)"/></g><g><path fill="none" stroke="#3bce00" stroke-miterlimit="20" stroke-width="6" d="M5 10A5 5 0 1 0 5 0a5 5 0 0 0 0 10z" clip-path="url(&quot;#evarb&quot;)"/></g><g><path fill="none" stroke="#000" stroke-linecap="square" stroke-miterlimit="20" d="M16.5 1.5l-14 18"/></g></g></svg>