<svg xmlns="http://www.w3.org/2000/svg" width="40" height="38" viewBox="0 0 40 38"><g><g><g><path d="M38.876 35.537c-.001.35-.14.683-.385.926a1.268 1.268 0 0 1-.918.371H26.47c-.341.006-.67-.128-.912-.372a1.301 1.301 0 0 1-.376-.925V18.864c-.003-.35.13-.689.372-.94.242-.25.571-.392.916-.395h2.04c.25.84 1.014 1.411 1.876 1.403h3.271a1.944 1.944 0 0 0 1.875-1.403h2.041c.721.005 1.303.601 1.303 1.335zM24.043 18.865v11.949l-7.687 4.534V18.796l13.998-8.276v4.368h.018a1.992 1.992 0 0 0-1.895 1.486h-2.015c-1.343.006-2.425 1.122-2.419 2.49zm-8.282-1.07L9.15 13.903l14.06-8.275 6.613 3.892zm-.538 17.553l-14.09-8.275V10.52l14.09 8.276zm.545-34.103l6.317 3.716-14.067 8.275L1.701 9.52zm17.903 14.799c.455 0 .823.377.823.843v.056a.833.833 0 0 1-.823.844h-3.294a.833.833 0 0 1-.822-.844v-.056c0-.466.368-.843.822-.843zm3.893.33h-2.017a1.993 1.993 0 0 0-1.896-1.486h-2.153V9.52a.569.569 0 0 0-.271-.5L16.039.076a.552.552 0 0 0-.564 0L.282 9.02a.578.578 0 0 0-.282.5v17.886a.58.58 0 0 0 .283.5l15.195 8.944c.086.05.184.077.283.077a.587.587 0 0 0 .292-.077l7.996-4.702v3.399c-.002.653.253 1.28.707 1.741.455.461 1.072.717 1.713.712h11.095a2.39 2.39 0 0 0 1.719-.71c.457-.46.715-1.088.717-1.743V18.865c0-1.372-1.09-2.486-2.436-2.491z"/></g><g><path d="M28.444 24h.467a.447.447 0 1 0 0-.894h-.017v-1.212h1.232a.43.43 0 0 0 .425.301.448.448 0 0 0 .449-.445v-.301a.453.453 0 0 0-.452-.449h-2.104a.446.446 0 0 0-.444.449v2.105a.444.444 0 0 0 .444.446z"/></g><g><path d="M28.894 27.894h1.222v1.222h-1.222zM28.447 30h2.106c.247 0 .447-.2.447-.447v-2.106c0-.247-.2-.447-.447-.447h-2.106c-.247 0-.447.2-.447.447v2.106c0 .247.2.447.447.447z"/></g><g><path d="M28.911 33.106h-.017v-1.212h1.208a.45.45 0 0 0 .898 0v-.43c0-.251-.2-.456-.452-.464h-2.104a.459.459 0 0 0-.444.464v2.105a.431.431 0 0 0 .444.43h.467a.447.447 0 1 0 0-.893z"/></g><g><path d="M31.82 22.156l-2.024 1.559-.616-.474a.839.839 0 0 0-.668-.138c-.238.05-.425.193-.488.376-.064.184.004.38.178.514l1.105.851c.13.1.305.156.489.156.183 0 .359-.056.489-.156l2.513-1.935c.27-.208.27-.545 0-.753a.844.844 0 0 0-.978 0z"/></g><g><path d="M31.82 33.156l-2.024 1.559-.616-.474a.839.839 0 0 0-.668-.138c-.238.05-.425.193-.488.376-.064.184.004.38.178.514l1.105.851c.13.1.305.156.489.156.183 0 .359-.056.489-.156l2.513-1.935c.27-.208.27-.545 0-.753a.844.844 0 0 0-.978 0z"/></g><g><path d="M36.396 23h-3.792c-.334 0-.604.224-.604.5s.27.5.604.5h3.792c.334 0 .604-.224.604-.5s-.27-.5-.604-.5z"/></g><g><path d="M36.396 28h-3.792c-.334 0-.604.224-.604.5s.27.5.604.5h3.792c.334 0 .604-.224.604-.5s-.27-.5-.604-.5z"/></g><g><path d="M36.396 32h-3.792c-.334 0-.604.224-.604.5s.27.5.604.5h3.792c.334 0 .604-.224.604-.5s-.27-.5-.604-.5z"/></g></g></g></svg>