<svg xmlns="http://www.w3.org/2000/svg" width="25" height="20" viewBox="0 0 25 20"><g><g><path d="M21.932 14.475l-2.007 1.948a5.793 5.793 0 0 1-4.06 1.633H3.831a.63.63 0 0 1-.638-.62c0-.753.58-1.4 1.356-1.508l6.4-.976a.634.634 0 0 0 .508-.42.607.607 0 0 0-.156-.63L1.728 4.612a1.11 1.11 0 0 1 .006-1.603c.227-.22.525-.33.822-.33.297 0 .595.11.822.331l6.384 6.196a.652.652 0 0 0 .902 0 .609.609 0 0 0-.001-.877l-2.607-2.53a1.107 1.107 0 0 1 .008-1.601 1.19 1.19 0 0 1 1.642 0l2.608 2.531a.652.652 0 0 0 .902 0 .609.609 0 0 0-.001-.877l-1.33-1.291a1.107 1.107 0 0 1 .007-1.601 1.19 1.19 0 0 1 1.642 0l1.337 1.297.002.002.002.002.001.001h.002l.001.002c.25.23.646.225.89-.013a.607.607 0 0 0 0-.875l-.055-.054a1.105 1.105 0 0 1 .006-1.601c.454-.438 1.19-.437 1.622-.021l4.777 5.096a5.446 5.446 0 0 1-.188 7.68zM23.159 5.9L18.317.702a2.506 2.506 0 0 0-3.486.007c-.306.3-.515.658-.623 1.04a2.51 2.51 0 0 0-3.24.218c-.305.3-.514.658-.624 1.04a2.51 2.51 0 0 0-3.239.218 2.37 2.37 0 0 0-.618 1.016L4.205 2.01A2.506 2.506 0 0 0 .72 2.02a2.366 2.366 0 0 0 0 3.398l8.767 8.566-5.2.797c-1.405.197-2.464 1.39-2.464 2.777 0 1.04.866 1.887 1.931 1.887h12.142a7.12 7.12 0 0 0 5.008-2.026l2.025-1.98A6.784 6.784 0 0 0 25 10.552 6.813 6.813 0 0 0 23.159 5.9z"/></g></g></svg>